# File created by Blade
# Date/Time:  Mon Sep 22 17:23:16 2014
# Frame Rate: 120.000 fps
#------------------------------------------------------
:FULLY-SPECIFIED
:DEGREES
3653
root 1.738100 39.529638 -0.347725 25.264941 -17.149161 -45.354648
RightUpLeg 2.976489 -13.250871 -30.555824
RightLeg 75.963378 -0.000000 -0.000000
RightFoot 7.954590 -32.895853 23.656533
RightToeBase 5.396616 -0.000000 -0.000000
LeftUpLeg -7.507605 5.546445 37.655896
LeftLeg 18.301162 -0.000000 -0.000000
LeftFoot -19.626961 7.667128 -17.722295
LeftToeBase 5.179092 -0.000000 -0.000000
Spine 8.582299 -10.243920 11.221734
RightShoulder -5.074804 -32.418535 -3.237219
RightArm 15.034760 -11.476544 60.307084
RightForeArm -186.178603 -0.000000 110.571940
RightHand 94.126568 -0.000000 -164.460246
RightHandThumb1 -24.326973 -0.000000 -32.862282
LeftShoulder -23.923595 34.380047 12.073919
LeftArm 66.550556 -28.873428 -70.629980
LeftForeArm 62.514531 -0.000000 137.562232
LeftHand -26.022958 -0.000000 -23.115153
LeftHandThumb1 -26.253704 0.000000 33.147579
Head 7.243875 36.747664 35.148109
3654
root 1.720651 39.536509 -0.338384 24.995659 -16.857012 -45.210910
RightUpLeg 3.002681 -13.214753 -30.403659
RightLeg 77.662133 -0.000000 -0.000000
RightFoot 7.492519 -32.484357 22.937157
RightToeBase 5.330052 -0.000000 -0.000000
LeftUpLeg -7.484205 5.290615 37.677834
LeftLeg 18.199951 -0.000000 -0.000000
LeftFoot -19.494483 7.561443 -17.671516
LeftToeBase 5.073351 -0.000000 -0.000000
Spine 8.684410 -10.402391 11.194580
RightShoulder -5.096677 -32.407261 -3.184796
RightArm 15.070983 -11.494530 60.330585
RightForeArm -186.133718 -0.000000 110.589864
RightHand 94.123393 -0.000000 -164.502406
RightHandThumb1 -24.326973 -0.000000 -32.862282
LeftShoulder -23.632735 34.464251 12.315678
LeftArm 66.503728 -28.787996 -70.621127
LeftForeArm 62.499294 -0.000000 137.495492
LeftHand -26.138835 -0.000000 -22.937959
LeftHandThumb1 -26.253704 0.000000 33.147579
Head 7.222148 36.773101 35.260754
3655
root 1.707126 39.545440 -0.337799 24.817338 -16.622866 -45.088635
RightUpLeg 2.829836 -13.207732 -30.236373
RightLeg 79.587526 -0.000000 -0.000000
RightFoot 6.897844 -31.987387 22.188965
RightToeBase 4.607591 -0.000000 -0.000000
LeftUpLeg -7.500638 5.062145 37.688353
LeftLeg 18.098690 -0.000000 -0.000000
LeftFoot -19.361791 7.524745 -17.644590
LeftToeBase 4.956665 -0.000000 -0.000000
Spine 8.718875 -10.490574 11.157083
RightShoulder -5.119936 -32.374164 -3.125207
RightArm 15.093756 -11.526004 60.354728
RightForeArm -186.060859 0.000000 110.595437
RightHand 94.135190 0.000000 -164.521417
RightHandThumb1 -24.326973 -0.000000 -32.862282
LeftShoulder -23.385337 34.502082 12.516933
LeftArm 66.583321 -28.647764 -70.677099
LeftForeArm 62.530956 -0.000000 137.409470
LeftHand -26.128906 -0.000000 -23.007192
LeftHandThumb1 -26.253704 0.000000 33.147579
Head 7.160956 36.679142 35.317886
3656
root 1.690736 39.555325 -0.340985 24.646751 -16.420449 -44.983527
RightUpLeg 2.570874 -13.262855 -30.082078
RightLeg 81.735472 -0.000000 -0.000000
RightFoot 6.238039 -31.397334 21.352521
RightToeBase 4.392230 -0.000000 -0.000000
LeftUpLeg -7.497372 4.799838 37.710315
LeftLeg 18.016469 -0.000000 -0.000000
LeftFoot -19.260292 7.486774 -17.705898
LeftToeBase 4.920905 -0.000000 -0.000000
Spine 8.770489 -10.573307 11.109611
RightShoulder -5.117730 -32.340765 -3.089620
RightArm 15.132307 -11.594097 60.376724
RightForeArm -186.077677 0.000000 110.614433
RightHand 94.048174 -0.000000 -164.494127
RightHandThumb1 -24.326973 -0.000000 -32.862282
LeftShoulder -23.172666 34.497314 12.676869
LeftArm 66.617403 -28.546777 -70.659691
LeftForeArm 62.536860 0.000000 137.309538
LeftHand -26.133768 -0.000000 -23.004071
LeftHandThumb1 -26.253704 0.000000 33.147579
Head 7.110370 36.610309 35.346006
